<svg xmlns="http://www.w3.org/2000/svg" viewBox="0 0 18 17.6"><path d="M13 17.6a1.6 1.6 0 1 1 0-3.2 1.6 1.6 0 0 1 0 3.2Zm-5.6 0a1.6 1.6 0 0 1 0-3.2 1.6 1.6 0 0 1 0 3.2Zm8.16-5a2 2 0 0 0 .74-1.07L18 6a1 1 0 0 0-.67-1.24 1 1 0 0 0-1.33.69L14.31 11H6.55l-2.3-8.5a2.55 2.55 0 0 0-.94-1.38A2.69 2.69 0 0 0 1.74.6H1a1 1 0 0 0 0 2h.74a.61.61 0 0 1 .37.12.6.6 0 0 1 .21.28l2.3 8.46a2 2 0 0 0 .75 1.09 2.07 2.07 0 0 0 1.25.45h7.69a2.09 2.09 0 0 0 1.25-.42ZM9.78 6.4h1.6V4h2.4V2.39h-2.4V0h-1.6v2.39h-2.4V4h2.4Z"/></svg>