<svg xmlns="http://www.w3.org/2000/svg" viewBox="0 0 32 32"><path d="M10 18a2 2 0 1 1-3.999.001A2 2 0 0 1 10 18zM18 18a1 1 0 0 1-1 1h-4a1 1 0 1 1 0-2h4a1 1 0 0 1 1 1z"/><path d="M26.429 2.095A1 1 0 0 0 25.004 3v4.382l-1 .5-1-.5V3a1 1 0 0 0-1.425-.905c-1.721.809-2.921 2.216-3.373 3.905H9.978a3.996 3.996 0 0 0-3.676 2.424l-2.168 5.06C2.871 14.157 2 15.472 2 17v2c0 1.474.81 2.75 2 3.444V26c0 1.103.897 2 2 2h4c1.103 0 2-.897 2-2v-3h8.004v3c0 2.206 1.794 4 4 4s4-1.794 4-4V11.971c1.386-1.151 2.3-3.309 1.918-5.494-.336-1.925-1.576-3.481-3.493-4.382zM8.14 9.212A1.998 1.998 0 0 1 9.978 8h8.045c.133 1.607.98 3.134 1.98 3.971V13H6.517zM10.001 26H6v-3h4zM6 21c-1.103 0-2-.897-2-2v-2c0-1.103.897-2 2-2h14.004v6H6zm20.402-10.318a1 1 0 0 0-.398.798V26c0 1.103-.897 2-2 2s-2-.897-2-2V11.48c0-.39-.243-.741-.478-.858-1.101-.827-1.632-2.22-1.498-3.52a3.67 3.67 0 0 1 .976-2.173V8c0 .379.214.725.553.895l2 1a1 1 0 0 0 .895 0l2-1c.338-.17.552-.516.552-.895V4.925c.497.535.822 1.179.948 1.896a3.975 3.975 0 0 1-1.55 3.861z"/><path d="M25.009 26a1 1 0 1 1-2 0 1 1 0 0 1 2 0z"/></svg>