<svg xmlns="http://www.w3.org/2000/svg" xml:space="preserve" style="enable-background:new 0 0 454.656 454.656" viewBox="0 0 454.656 454.656"><g><g><path d="m454.656 227.584-38.912-50.688 8.704-62.976-59.392-23.552-23.552-59.392-62.976 8.704-51.2-39.424-50.688 38.912-62.976-8.704-23.552 59.392-59.392 23.552 8.704 62.976L0 227.584l38.912 50.688-8.704 62.976L89.6 364.8l23.552 59.392 62.976-8.704 50.688 38.912 50.688-38.912 62.976 8.704 23.552-59.392 59.392-24.064-8.704-62.976 39.936-50.176zm-245.76 73.728-75.776-62.464 16.384-19.968 56.32 46.08 96.256-111.104 19.456 16.896-112.64 130.56z"/></g></g></svg>