<svg xmlns="http://www.w3.org/2000/svg" viewBox="0 0 22.77 20.17"><path d="M11.39 20.17a1 1 0 0 1-.73-.31l-8.85-9.23A6.22 6.22 0 0 1 .66 3.45a6.27 6.27 0 0 1 1.88-2.24A6.39 6.39 0 0 1 5.24.08a6.23 6.23 0 0 1 5.41 1.75l.74.73.74-.73A6.12 6.12 0 0 1 14.62.3a6.22 6.22 0 0 1 7.49 3.15 6.23 6.23 0 0 1-1.17 7.2l-8.83 9.21a1 1 0 0 1-.72.31ZM6.23 2a5 5 0 0 0-.67 0 4.37 4.37 0 0 0-1.83.77 4.27 4.27 0 0 0-1.28 1.57 4.25 4.25 0 0 0 .79 4.89l8.15 8.5 8.13-8.48a4.33 4.33 0 0 0 1.2-2.34A4.26 4.26 0 0 0 19 2.82a4.32 4.32 0 0 0-1.83-.77 4.43 4.43 0 0 0-2 .15 4.36 4.36 0 0 0-1.69 1l-1.39 1.49a1 1 0 0 1-1.41 0L9.23 3.24a4.29 4.29 0 0 0-1.69-1A4.42 4.42 0 0 0 6.23 2Z"/></svg>