<svg height="512" width="512" xmlns="http://www.w3.org/2000/svg"><switch><g><path d="M487.5 146.5c-20.9-44.3-54-81.5-95.7-107.6-58-36.2-126.7-47.7-193.3-32.3C131.9 21.9 75.2 62.3 39 120.3 2.7 178.3-8.8 246.9 6.6 313.6s55.8 123.3 113.7 159.5c40.8 25.5 87.6 39 135.5 39h3.1c47.7-.6 94.1-14.4 134.3-39.8 11.7-7.4 15.1-22.8 7.7-34.5s-22.8-15.1-34.5-7.7c-32.3 20.5-69.7 31.6-108.1 32.1h-2.5c-38.5 0-76.1-10.8-109-31.4-96.3-60.3-125.7-187.7-65.4-284C141.6 50.5 269 21.1 365.3 81.3c33.6 21 60.2 50.9 77 86.5 16.4 34.7 22.8 73.2 18.5 111.2-1.5 13.7 8.3 26.1 22.1 27.6 13.7 1.5 26.1-8.3 27.6-22.1 5.3-47.1-2.7-94.9-23-138z"/><path d="M256 378.8c13.8 0 25-11.2 25-25V281h72.7c13.8 0 25-11.2 25-25s-11.2-25-25-25H281v-72.7c0-13.8-11.2-25-25-25s-25 11.2-25 25V231h-72.7c-13.8 0-25 11.2-25 25s11.2 25 25 25H231v72.7c0 13.9 11.2 25.1 25 25.1z"/></g></switch></svg>