<svg xmlns="http://www.w3.org/2000/svg" viewBox="0 0 32 32"><path d="M16 2c-3.309 0-6 2.691-6 6v2H5a.997.997 0 0 0-.994 1.11l1.703 15.331A3.997 3.997 0 0 0 9.685 30h12.63c2.042 0 3.75-1.53 3.975-3.559l1.704-15.331A.997.997 0 0 0 27 10h-5V8c0-3.309-2.691-6-6-6zm-4 6c0-2.206 1.794-4 4-4s4 1.794 4 4v2h-8zm13.883 4-1.581 14.221A1.997 1.997 0 0 1 22.315 28H9.685a1.998 1.998 0 0 1-1.988-1.779L6.117 12H10v2a1 1 0 0 0 0 2h2a1 1 0 0 0 0-2v-2h8v2a1 1 0 0 0 0 2h2a1 1 0 0 0 0-2v-2z"/><path d="M20.625 18.219a1 1 0 0 1 .156 1.406l-4 5a1 1 0 0 1-1.335.207l-3-2a1.001 1.001 0 0 1 1.11-1.664l2.237 1.491 3.427-4.284a1 1 0 0 1 1.405-.156z"/></svg>