<svg xmlns="http://www.w3.org/2000/svg" id="Layer_1" data-name="Layer 1" viewBox="0 0 163.77 36.37"><defs><style>.logo-color-1{fill:#fff}.logo-color-2{fill:#f1a01f}</style></defs><path d="M21.34 21.22h-7.3l-2.3-9.06-3.26 9.06H1.02L5.95 7.68h13.63l1.34 5.09 4.82-5.09h13.2l-6.59 18.15h-7.49l4.88-13.35ZM6.62 5.86 8.74 0h8.83l1.54 5.86Zm20.8 0L32.92 0h8.82l-2.11 5.86ZM39.04 14.43l2.46-6.75h7.9l-2.56 7a1.45 1.45 0 0 0-.09.48c0 .13.15.19.45.19h11.36a.54.54 0 0 0 .52-.25 3 3 0 0 0 .24-.52l2.53-6.91h7.89l-2.47 6.75a10.53 10.53 0 0 1-1.26 2.37 12.06 12.06 0 0 1-2 2.19 11.37 11.37 0 0 1-2.37 1.63 5.71 5.71 0 0 1-2.57.64H42.33a3.35 3.35 0 0 1-2.13-.64 3.86 3.86 0 0 1-1.21-1.63 5.55 5.55 0 0 1-.39-2.19 7.14 7.14 0 0 1 .44-2.36Zm3.2-8.57a11.86 11.86 0 0 1 1.4-2.11 13 13 0 0 1 1.89-1.89A9.58 9.58 0 0 1 47.74.51 5.79 5.79 0 0 1 50.06 0h16.68a3.54 3.54 0 0 1 2 .51 3.5 3.5 0 0 1 1.23 1.36 5.1 5.1 0 0 1 .53 1.89 6.78 6.78 0 0 1-.13 2.1ZM90.11 13.61H79.45v-.1l2.11-5.76H97.37a6.93 6.93 0 0 1-1.15 1.15 2.13 2.13 0 0 1 1.49.9 4.13 4.13 0 0 1 .65 1.68 6.19 6.19 0 0 1 0 1.87 6.69 6.69 0 0 1-.3 1.47 9.45 9.45 0 0 1-1.2 2.2 13.79 13.79 0 0 1-1.89 2.09 10.54 10.54 0 0 1-2.23 1.5 5.53 5.53 0 0 1-2.48.61H67.39l4.93-13.54h7.48l-2.75 7.55h12.39a.88.88 0 0 0 .59-.24 1.48 1.48 0 0 0 .4-.56.57.57 0 0 0-.08-.43ZM95.32 0a3.81 3.81 0 0 1 2.79.91A3.26 3.26 0 0 1 99 3.27a5.71 5.71 0 0 1-.38 2l-.22.61H72.99L75.1.02Z" class="logo-color-1"/><path d="M122.01 13.61h-13l-.64 1.79h18.84l-2.14 5.86H98.3l4.93-13.54h20.93Zm8.61-7.71h-26.66a12.51 12.51 0 0 1 1.41-2.11 13 13 0 0 1 1.89-1.89 9.58 9.58 0 0 1 2.19-1.35 5.76 5.76 0 0 1 2.29-.55h21ZM150.91 10.61l5.15 10.59h-11.17l-2-4-4.83 4h-11.12l12.8-10.59-1.41-2.95h16.13ZM163.74 0l-7 5.86h-19.2L134.69 0h11.17l1.92 4 4.86-4Z" class="logo-color-2"/><path d="m4.93 36.3-.6-1.4H1.45l-.61 1.4H0l2.54-5.69h.69l2.51 5.69Zm-3.19-2.06h2.31l-1.16-2.7ZM8.79 35.78a2.35 2.35 0 0 1-.59-1.73v-3.44h.83v3.49a1.7 1.7 0 0 0 .37 1.19 1.45 1.45 0 0 0 1.12.4 1.44 1.44 0 0 0 1.11-.4 1.65 1.65 0 0 0 .38-1.19v-3.49h.83v3.44a2.35 2.35 0 0 1-.6 1.73 2.34 2.34 0 0 1-1.72.59 2.35 2.35 0 0 1-1.73-.59ZM17.25 36.3v-5h-1.92v-.69h4.69v.7h-1.93v5ZM23.25 36.01a2.41 2.41 0 0 1-.92-1 3.91 3.91 0 0 1 0-3.1 2.31 2.31 0 0 1 .92-1 2.72 2.72 0 0 1 1.4-.35 2.76 2.76 0 0 1 1.41.35 2.31 2.31 0 0 1 .92 1 3.89 3.89 0 0 1 0 3.09 2.26 2.26 0 0 1-.92 1 2.92 2.92 0 0 1-2.81 0Zm2.73-.9a3.1 3.1 0 0 0 0-3.3 1.81 1.81 0 0 0-2.66 0 2.55 2.55 0 0 0-.47 1.65 2.59 2.59 0 0 0 .47 1.65 1.8 1.8 0 0 0 2.65 0ZM34.11 30.61h2.36a2 2 0 0 1 1.4.45 1.59 1.59 0 0 1 .5 1.26 1.62 1.62 0 0 1-.5 1.26 2 2 0 0 1-1.4.45h-1.53v2.27h-.83Zm2.27 2.75c.79 0 1.19-.35 1.19-1s-.4-1-1.19-1h-1.44v2.08ZM44.89 36.3l-.6-1.4h-2.88l-.61 1.4h-.84l2.54-5.69h.69l2.55 5.69Zm-3.15-2.06h2.32l-1.16-2.7ZM52.86 36.3h-.92l-1-1.82a1 1 0 0 0-.38-.41 1.41 1.41 0 0 0-.59-.11h-.93v2.34h-.8v-5.69h2.42a2.17 2.17 0 0 1 1.44.42 1.5 1.5 0 0 1 .5 1.23 1.53 1.53 0 0 1-.37 1.07 1.71 1.71 0 0 1-1 .54 1.16 1.16 0 0 1 .69.63Zm-2.29-3a1.48 1.48 0 0 0 .93-.25.92.92 0 0 0 .3-.76.91.91 0 0 0-.3-.76 1.48 1.48 0 0 0-.93-.24h-1.51v2ZM56.74 36.3v-5h-1.88v-.69h4.69v.7h-1.93v5ZM62.55 36.19a2.64 2.64 0 0 1-1-.52l.3-.62a2.72 2.72 0 0 0 .87.49 3.13 3.13 0 0 0 1 .15 1.75 1.75 0 0 0 1-.24.76.76 0 0 0 .34-.67.58.58 0 0 0-.32-.55 4.14 4.14 0 0 0-1-.35 5.41 5.41 0 0 1-1.12-.33 1.68 1.68 0 0 1-.68-.5 1.3 1.3 0 0 1-.24-.81 1.45 1.45 0 0 1 .26-.88 1.71 1.71 0 0 1 .74-.6 2.85 2.85 0 0 1 1.13-.21 3.46 3.46 0 0 1 1.12.18 2.35 2.35 0 0 1 .87.52l-.29.62a2.74 2.74 0 0 0-.81-.48 2.38 2.38 0 0 0-.89-.16 1.59 1.59 0 0 0-1 .25.84.84 0 0 0-.35.71.63.63 0 0 0 .31.58 2.89 2.89 0 0 0 1 .36 7.83 7.83 0 0 1 1.15.34 1.7 1.7 0 0 1 .7.47 1.16 1.16 0 0 1 .26.79 1.39 1.39 0 0 1-.26.86 1.65 1.65 0 0 1-.75.58 3.09 3.09 0 0 1-1.16.2 3.89 3.89 0 0 1-1.18-.18ZM76.6 36.3l-.63-.69a2.32 2.32 0 0 1-.79.54 2.29 2.29 0 0 1-.94.19 2.32 2.32 0 0 1-1-.19 1.49 1.49 0 0 1-.67-.53 1.34 1.34 0 0 1-.24-.79 1.51 1.51 0 0 1 .3-.92 3.34 3.34 0 0 1 1-.8 2.81 2.81 0 0 1-.5-.67 1.35 1.35 0 0 1-.15-.62 1.22 1.22 0 0 1 .4-.93 1.6 1.6 0 0 1 1.07-.28 1.41 1.41 0 0 1 1 .32 1.09 1.09 0 0 1 .36.86 1.23 1.23 0 0 1-.26.77 2.86 2.86 0 0 1-.86.72l1.24 1.33a4.08 4.08 0 0 0 .37-1.64h.69a4.43 4.43 0 0 1-.58 2.15l1.16 1.23Zm-1.08-1.14-1.47-1.55a2.49 2.49 0 0 0-.69.58 1 1 0 0 0-.21.64.83.83 0 0 0 .3.67 1.28 1.28 0 0 0 .81.24 1.64 1.64 0 0 0 1.26-.58Zm-1.58-3.82a.62.62 0 0 0-.2.5.87.87 0 0 0 .11.41 2.59 2.59 0 0 0 .4.53 3.43 3.43 0 0 0 .67-.51.78.78 0 0 0 .18-.49.65.65 0 0 0-.17-.46.68.68 0 0 0-.47-.17.69.69 0 0 0-.52.19ZM88.09 36.3l-.61-1.4H84.6l-.6 1.4h-.84l2.58-5.69h.7l2.53 5.69Zm-3.2-2.06h2.31l-1.15-2.7ZM92.32 36.01a2.28 2.28 0 0 1-.93-1 3.78 3.78 0 0 1 0-3.09 2.33 2.33 0 0 1 .93-1 2.9 2.9 0 0 1 1.42-.37 3.22 3.22 0 0 1 1.08.18 2.39 2.39 0 0 1 .84.52l-.29.62a2.75 2.75 0 0 0-.78-.48 2.37 2.37 0 0 0-.85-.15 1.72 1.72 0 0 0-1.37.58 3 3 0 0 0 0 3.28 1.72 1.72 0 0 0 1.37.58 2.37 2.37 0 0 0 .85-.15 2.75 2.75 0 0 0 .78-.48l.29.62a2.39 2.39 0 0 1-.84.52 3.22 3.22 0 0 1-1.08.18 2.8 2.8 0 0 1-1.42-.36ZM99.47 36.01a2.3 2.3 0 0 1-.94-1 3.78 3.78 0 0 1 0-3.09 2.36 2.36 0 0 1 .94-1 2.83 2.83 0 0 1 1.43-.35 3.14 3.14 0 0 1 1.08.18 2.43 2.43 0 0 1 .85.52l-.29.62a2.93 2.93 0 0 0-.79-.48 2.32 2.32 0 0 0-.84-.15 1.69 1.69 0 0 0-1.37.58 3 3 0 0 0 0 3.28 1.69 1.69 0 0 0 1.37.58 2.32 2.32 0 0 0 .84-.15 2.93 2.93 0 0 0 .79-.48l.29.62a2.43 2.43 0 0 1-.85.52 3.14 3.14 0 0 1-1.08.18 2.74 2.74 0 0 1-1.43-.38ZM105.64 36.3v-5.69h3.69v.67h-2.88v1.8h2.72v.67h-2.72v1.86h2.88v.67ZM112.74 36.19a2.73 2.73 0 0 1-.95-.52l.3-.62a2.72 2.72 0 0 0 .87.49 3.13 3.13 0 0 0 1 .15 1.72 1.72 0 0 0 1-.24.77.77 0 0 0 .35-.67.58.58 0 0 0-.33-.55 4.14 4.14 0 0 0-1-.35 5.3 5.3 0 0 1-1.11-.33 1.71 1.71 0 0 1-.69-.5 1.3 1.3 0 0 1-.24-.81 1.52 1.52 0 0 1 .26-.88 1.74 1.74 0 0 1 .75-.6 2.76 2.76 0 0 1 1.12-.21 3.52 3.52 0 0 1 1.13.18 2.23 2.23 0 0 1 .86.52l-.29.62a2.62 2.62 0 0 0-.81-.48 2.37 2.37 0 0 0-.88-.16 1.64 1.64 0 0 0-1 .25.84.84 0 0 0-.35.71.63.63 0 0 0 .31.58 2.89 2.89 0 0 0 1 .36 7.47 7.47 0 0 1 1.15.34 1.73 1.73 0 0 1 .71.47 1.21 1.21 0 0 1 .26.79 1.46 1.46 0 0 1-.26.86 1.74 1.74 0 0 1-.76.58 3.07 3.07 0 0 1-1.15.2 4 4 0 0 1-1.25-.18ZM119.54 36.19a2.64 2.64 0 0 1-1-.52l.3-.62a2.72 2.72 0 0 0 .87.49 3.09 3.09 0 0 0 1 .15 1.75 1.75 0 0 0 1-.24.76.76 0 0 0 .34-.67.59.59 0 0 0-.32-.55 4.29 4.29 0 0 0-1-.35 5.23 5.23 0 0 1-1.12-.33 1.61 1.61 0 0 1-.68-.5 1.3 1.3 0 0 1-.25-.81 1.46 1.46 0 0 1 .27-.88 1.71 1.71 0 0 1 .74-.6 2.83 2.83 0 0 1 1.12-.21 3.48 3.48 0 0 1 1.13.18 2.35 2.35 0 0 1 .87.52l-.29.62a2.88 2.88 0 0 0-.81-.48 2.38 2.38 0 0 0-.89-.16 1.59 1.59 0 0 0-1 .25.82.82 0 0 0-.35.71.64.64 0 0 0 .3.58 3 3 0 0 0 1 .36 7.83 7.83 0 0 1 1.15.34 1.7 1.7 0 0 1 .7.47 1.16 1.16 0 0 1 .26.79 1.39 1.39 0 0 1-.26.86 1.65 1.65 0 0 1-.75.58 3.09 3.09 0 0 1-1.16.2 3.89 3.89 0 0 1-1.17-.18ZM126.74 36.01a2.35 2.35 0 0 1-.92-1 3.91 3.91 0 0 1 0-3.1 2.31 2.31 0 0 1 .92-1 2.72 2.72 0 0 1 1.4-.35 2.78 2.78 0 0 1 1.41.35 2.31 2.31 0 0 1 .92 1 3.89 3.89 0 0 1 0 3.09 2.26 2.26 0 0 1-.92 1 2.69 2.69 0 0 1-1.41.36 2.63 2.63 0 0 1-1.4-.35Zm2.73-.9a3.1 3.1 0 0 0 0-3.3 1.62 1.62 0 0 0-1.34-.58 1.59 1.59 0 0 0-1.32.58 2.55 2.55 0 0 0-.47 1.65 2.59 2.59 0 0 0 .47 1.65 1.59 1.59 0 0 0 1.32.58 1.62 1.62 0 0 0 1.37-.58ZM138.34 36.3h-.92l-1-1.82a1 1 0 0 0-.38-.41 1.41 1.41 0 0 0-.59-.11h-.93v2.34h-.78v-5.69h2.42a2.17 2.17 0 0 1 1.44.42 1.5 1.5 0 0 1 .5 1.23 1.53 1.53 0 0 1-.37 1.07 1.71 1.71 0 0 1-1 .54 1.16 1.16 0 0 1 .69.63Zm-2.29-3a1.48 1.48 0 0 0 .93-.25.92.92 0 0 0 .3-.76.91.91 0 0 0-.3-.76 1.48 1.48 0 0 0-.93-.24h-1.51v2ZM141.07 36.3v-5.69h.83v5.69ZM145 36.3v-5.69h3.74v.67h-2.88v1.8h2.72v.67h-2.72v1.86h2.88v.67ZM152.06 36.19a2.68 2.68 0 0 1-.94-.52l.29-.62a2.72 2.72 0 0 0 .87.49 3.2 3.2 0 0 0 1 .15 1.71 1.71 0 0 0 1-.24.77.77 0 0 0 .35-.67.59.59 0 0 0-.32-.55 4.24 4.24 0 0 0-1-.35 5.3 5.3 0 0 1-1.11-.33 1.61 1.61 0 0 1-.68-.5 1.24 1.24 0 0 1-.25-.81 1.52 1.52 0 0 1 .26-.88 1.8 1.8 0 0 1 .75-.6 2.8 2.8 0 0 1 1.12-.21 3.52 3.52 0 0 1 1.13.18 2.23 2.23 0 0 1 .86.52l-.29.62a2.62 2.62 0 0 0-.81-.48 2.33 2.33 0 0 0-.88-.16 1.64 1.64 0 0 0-1 .25.84.84 0 0 0-.35.71.65.65 0 0 0 .31.58 2.89 2.89 0 0 0 1 .36 8 8 0 0 1 1.16.34 1.77 1.77 0 0 1 .7.47 1.21 1.21 0 0 1 .26.79 1.46 1.46 0 0 1-.26.86 1.77 1.77 0 0 1-.75.58 3.16 3.16 0 0 1-1.16.2 4 4 0 0 1-1.26-.18Z" class="logo-color-1"/></svg>