<svg viewBox="0 0 1550 1550" xmlns="http://www.w3.org/2000/svg" fill="#556068"><path d="M84 711.3c-1 0-2-.1-3-.2-13.1-1.7-22.5-13.7-20.8-26.8 21.7-171.6 105.2-329.7 235.2-445.1 64.2-57 137.1-101.5 216.7-132.4 82.5-31.9 169.5-48.1 258.7-48.1 82.1 0 162.6 13.8 239.3 40.9 74.1 26.3 143.1 64.4 205 113.5 61.3 48.5 114 106.4 156.6 171.8 43.3 66.6 75 139.4 94.2 216.3 3.2 12.9-4.6 25.9-17.5 29.1s-25.9-4.6-29.1-17.5c-74.3-298-341-506.1-648.5-506.1-335.9 0-621 250.9-663.1 583.7-1.5 12-11.8 20.9-23.7 20.9z"/><path d="M1442.5 631.1c-4.2 0-8.5-1.1-12.3-3.4l-127.4-76.5c-11.4-6.8-15-21.6-8.2-32.9 6.8-11.4 21.6-15 32.9-8.2l106.8 64.1 64.1-106.8c6.8-11.4 21.6-15.1 32.9-8.2 11.4 6.8 15 21.6 8.2 32.9L1463 619.5c-4.4 7.5-12.3 11.6-20.5 11.6zM770.8 1491.4c-80.4 0-159.4-13.2-234.7-39.3-72.8-25.2-140.8-62-202.1-109.2-60.6-46.7-113.2-102.5-156.2-165.8-43.7-64.3-76.3-134.7-97.1-209.2-3.6-12.8 3.9-26 16.7-29.6s26 3.9 29.6 16.7c80.2 287.6 345 488.4 643.9 488.4 335.9 0 621-250.9 663.1-583.7 1.7-13.2 13.7-22.5 26.8-20.8 13.2 1.7 22.5 13.7 20.8 26.8-21.7 171.6-105.2 329.7-235.2 445.1-64.2 57-137.1 101.5-216.7 132.4-82.6 32-169.7 48.2-258.9 48.2z"/><path d="M31 1114.7c-4 0-8-1-11.8-3.1-11.5-6.5-15.6-21.1-9.1-32.7L83 949.4c6.5-11.5 21.1-15.6 32.7-9.1l129.5 72.9c11.5 6.5 15.6 21.1 9.1 32.7-6.5 11.5-21.1 15.6-32.7 9.1L113 993.8l-61.2 108.6c-4.3 7.9-12.4 12.3-20.8 12.3z"/><g><path d="M775 1226.5c-60.9 0-120.1-11.9-175.8-35.5-53.8-22.7-102.1-55.3-143.5-96.8-41.5-41.5-74-89.7-96.8-143.5-23.6-55.7-35.5-114.8-35.5-175.8s11.9-120.1 35.5-175.8c22.7-53.8 55.3-102.1 96.8-143.5 41.5-41.5 89.7-74 143.5-96.8 55.7-23.6 114.8-35.5 175.8-35.5s120.1 11.9 175.8 35.5c53.8 22.7 102.1 55.3 143.5 96.8 41.5 41.5 74 89.7 96.8 143.5 23.6 55.7 35.5 114.8 35.5 175.8s-11.9 120.1-35.5 175.8c-22.7 53.8-55.3 102.1-96.8 143.5s-89.7 74-143.5 96.8c-55.7 23.6-114.9 35.5-175.8 35.5zm0-855c-222.5 0-403.5 181-403.5 403.5s181 403.5 403.5 403.5 403.5-181 403.5-403.5-181-403.5-403.5-403.5z"/></g><g><path d="M923.5 909.6c6.8-14.3 10.3-30.2 10.3-47.5 0-27.2-7.6-49.2-22.6-65.4-14.9-16.1-33.1-28.2-54.1-35.8-20.9-7.6-48.2-15.2-81.1-22.4-37.1-8.3-62.5-16.8-75.6-25.2-12.9-8.3-19.4-21-19.4-37.9 0-19.1 8.5-33.8 25.3-43.8 16.9-10.1 39.2-15.2 66.2-15.2 29.9 0 53.1 6.4 69.1 19.1 11.5 9.1 19.2 21 23.6 36.4 3.5 12.1 15.1 20.4 27.7 19.4h.6c7.8-.6 14.9-4.7 19.5-11 4.5-6.3 6-14.3 4.1-21.8-6.3-24.4-19.4-44.5-39.1-59.7-27-20.9-63.3-31.4-107.7-31.4-43.3 0-78 10.6-103.2 31.6-12.6 10.5-22.2 22.6-28.5 35.9-6.3 13.2-9.4 28.1-9.4 44.2 0 14.3 2.5 27.4 7.6 38.9 5 11.4 12.5 21.7 22.5 30.5 20.1 17.9 52.1 31.4 97.7 41.3 44.7 9.7 77.1 19.6 96 29.5 18.7 9.8 28.2 25.7 28.2 47.1 0 20.5-9.1 37-27.1 49-18.1 12-42.1 18.2-71.5 18.2-31.4 0-58.5-7.4-80.6-21.8-16.8-11-28-27.2-33.4-48.1-3-11.8-13.6-20.1-25.6-20.1-.8 0-1.6 0-2.3.1-7.7.7-14.6 4.6-19.2 10.8-4.4 6.1-6 13.7-4.4 21 6.2 27.3 19.9 50.7 40.9 69.6 28 25.1 70.6 37.9 126.8 37.9 44 0 80.3-11.5 107.7-34.3 13.6-11.7 24.1-24.8 31-39.1z"/><path d="M773.5 600.1c-13.3 0-24-10.7-24-24v-29.7c0-13.3 10.7-24 24-24s24 10.7 24 24v29.7c0 13.2-10.8 24-24 24zM773.5 1027.7c-13.3 0-24-10.7-24-24V974c0-13.3 10.7-24 24-24s24 10.7 24 24v29.7c0 13.2-10.8 24-24 24z"/></g></svg>